<?xml version="1.0" encoding="UTF-8" standalone="no"?>
<!-- Created with Inkscape (http://www.inkscape.org/) -->

<svg
   xmlns:dc="http://purl.org/dc/elements/1.1/"
   xmlns:cc="http://creativecommons.org/ns#"
   xmlns:rdf="http://www.w3.org/1999/02/22-rdf-syntax-ns#"
   xmlns:svg="http://www.w3.org/2000/svg"
   xmlns="http://www.w3.org/2000/svg"
   xmlns:sodipodi="http://sodipodi.sourceforge.net/DTD/sodipodi-0.dtd"
   xmlns:inkscape="http://www.inkscape.org/namespaces/inkscape"
   width="182.23492mm"
   height="182.23492mm"
   viewBox="0 0 645.7143 645.7143"
   id="svg2"
   version="1.1"
   inkscape:version="0.91 r13725"
   sodipodi:docname="Player_0.svg"
   inkscape:export-filename="/home/arthur/Documents/Python/Corridor-Jumper-master/data_src/back_0 (copie).svg.png"
   inkscape:export-xdpi="7.1106091"
   inkscape:export-ydpi="7.1106091">
  <defs
     id="defs4" />
  <sodipodi:namedview
     id="base"
     pagecolor="#ffffff"
     bordercolor="#666666"
     borderopacity="1.0"
     inkscape:pageopacity="0.0"
     inkscape:pageshadow="2"
     inkscape:zoom="0.7"
     inkscape:cx="230.54142"
     inkscape:cy="296.8483"
     inkscape:document-units="px"
     inkscape:current-layer="layer1"
     showgrid="false"
     fit-margin-top="0"
     fit-margin-left="0"
     fit-margin-right="0"
     fit-margin-bottom="0"
     inkscape:window-width="1366"
     inkscape:window-height="705"
     inkscape:window-x="0"
     inkscape:window-y="30"
     inkscape:window-maximized="1" />
  <metadata
     id="metadata7">
    <rdf:RDF>
      <cc:Work
         rdf:about="">
        <dc:format>image/svg+xml</dc:format>
        <dc:type
           rdf:resource="http://purl.org/dc/dcmitype/StillImage" />
        <dc:title />
      </cc:Work>
    </rdf:RDF>
  </metadata>
  <g
     inkscape:label="Calque 1"
     inkscape:groupmode="layer"
     id="layer1"
     transform="translate(-17.142857,-186.64792)">
    <path
       style="opacity:0.98299997;fill:#ff280c;fill-opacity:1;stroke:#a58e72;stroke-width:0.2;stroke-linejoin:miter;stroke-miterlimit:4;stroke-dasharray:none;stroke-opacity:1"
       d="M 316.83594 87.539062 C 309.58147 87.45584 302.77948 89.859191 297.74805 94.890625 L 297.14258 95.496094 C 296.17217 96.100666 295.23217 96.74882 294.32617 97.439453 C 291.30389 99.255928 288.40586 101.50429 285.73438 104.17578 L 179.17578 210.73438 C 164.90536 225.0048 162.67536 245.75153 174.17578 257.25195 L 183.46289 266.53711 C 194.96331 278.03753 215.71004 275.80754 229.98047 261.53711 L 280 211.51758 L 280 506.42773 C 280 526.60915 296.2463 542.85742 316.42773 542.85742 C 336.60916 542.85742 352.85742 526.60915 352.85742 506.42773 L 352.85742 210.08984 L 400.01953 257.25195 C 414.28996 271.52238 435.03669 273.75237 446.53711 262.25195 L 455.82422 252.9668 C 467.32464 241.46638 465.09464 220.71964 450.82422 206.44922 L 344.26562 99.890625 C 336.23851 91.86351 326.1631 87.646063 316.83594 87.539062 z "
       id="rect4138"
       transform="translate(17.142857,186.64792)" />
  </g>
</svg>
